<?xml version="1.0" standalone="no"?><!DOCTYPE svg PUBLIC "-//W3C//DTD SVG 1.1//EN" "http://www.w3.org/Graphics/SVG/1.1/DTD/svg11.dtd"><svg t="1665718110452" class="icon" viewBox="0 0 1024 1024" version="1.1" xmlns="http://www.w3.org/2000/svg" p-id="3250" width="40" height="40" xmlns:xlink="http://www.w3.org/1999/xlink"><path d="M512 992C246.912 992 32 777.088 32 512 32 246.912 246.912 32 512 32c265.088 0 480 214.912 480 480 0 265.088-214.912 480-480 480zM480 256v352a32 32 0 0 0 64 0V256a32 32 0 0 0-64 0z m-16 528a48 48 0 1 0 96 0 48 48 0 0 0-96 0z" p-id="3251" fill="#ffb664"></path></svg>