<?xml version="1.0" standalone="no"?><!DOCTYPE svg PUBLIC "-//W3C//DTD SVG 1.1//EN" "http://www.w3.org/Graphics/SVG/1.1/DTD/svg11.dtd"><svg t="1622511998564" class="icon" viewBox="0 0 1024 1024" version="1.1" xmlns="http://www.w3.org/2000/svg" p-id="5405" data-spm-anchor-id="a313x.7781069.0.i4" width="70" height="70" xmlns:xlink="http://www.w3.org/1999/xlink"><defs><style type="text/css">@font-face { font-family: element-icons; src: url("chrome-extension://moombeodfomdpjnpocobemoiaemednkg/fonts/element-icons.woff") format("woff"), url("chrome-extension://moombeodfomdpjnpocobemoiaemednkg/fonts/element-icons.ttf ") format("truetype"); }
</style></defs><path d="M87.04 309.76h849.92c45.056 0 81.92 36.864 81.92 81.92v240.64c0 45.056-36.864 81.92-81.92 81.92H87.04c-45.056 0-81.92-36.864-81.92-81.92v-240.64c0-45.056 36.864-81.92 81.92-81.92z" fill="#FFB800" p-id="5406" data-spm-anchor-id="a313x.7781069.0.i3" class=""></path><path d="M174.08 475.136l51.712 165.376 51.712-165.376H174.08z m10.752-91.648H125.44l-46.592 73.728h75.776l30.208-73.728zM276.48 456.704l-30.208-73.728h-40.96l-30.208 73.728H276.48z m-193.536 18.432l51.2 63.488 67.072 82.432-47.104-145.92H82.944z m183.808-91.648L296.96 456.704h76.8l-47.616-73.728H266.752z m-15.36 236.032l89.088-109.056 28.672-35.328h-71.68l-46.08 144.384zM529.92 430.592h-67.584v162.304h30.72V532.992h36.352c39.936 0 59.904-17.408 59.904-51.2s-19.968-51.2-59.392-51.2z m-36.864 27.136h34.816c10.752 0 18.432 2.048 23.552 5.632 4.608 3.584 7.168 9.728 7.168 17.92 0 8.704-2.56 14.848-6.656 18.432-5.12 3.584-13.312 5.632-23.552 5.632h-34.816v-47.616zM733.696 567.296l-2.56-25.6c-1.536-13.824-7.68-23.04-18.432-27.648 6.144-2.56 11.264-7.168 14.848-12.288 4.608-6.656 7.168-14.848 7.168-23.04 0-15.36-5.12-27.648-15.872-36.352-9.728-7.68-23.04-11.264-39.424-11.264h-72.704v162.304h30.72V528.896h38.4c8.704 0 14.336 1.536 18.432 5.12 4.096 3.072 6.144 8.704 7.168 16.896l2.048 19.456c1.024 9.728 3.584 16.384 7.168 22.016l0.512 1.024h34.816l-3.584-4.608c-5.12-5.632-8.192-12.8-8.704-21.504z m-96.256-109.568h38.4c10.24 0 17.408 1.536 21.504 5.12 4.096 3.072 6.144 8.704 6.144 16.384 0 7.168-2.048 12.8-6.144 16.384-5.12 4.096-12.288 5.632-21.504 5.632h-38.4v-43.52zM890.88 452.096c-14.336-15.872-33.792-24.064-58.88-24.064s-44.544 8.192-58.88 24.576c-13.824 15.36-20.48 34.816-20.48 59.904 0 24.576 6.656 44.544 20.48 59.904 14.336 15.872 33.792 24.064 58.88 24.064 24.576 0 44.544-8.192 58.88-24.064 13.824-15.36 20.48-35.328 20.48-59.904 0-25.088-6.656-45.568-20.48-60.416z m-58.88 3.584c15.872 0 27.648 4.608 35.84 14.848 8.192 10.24 12.288 24.064 12.288 41.984 0 17.408-4.096 31.744-12.288 41.472-8.192 9.728-20.48 14.848-35.84 14.848s-27.648-5.12-35.84-15.36c-8.192-10.24-12.288-23.552-12.288-40.96 0-17.408 4.096-31.232 12.288-40.96 8.704-10.752 20.48-15.872 35.84-15.872z" fill="#FFFFFF" p-id="5407" data-spm-anchor-id="a313x.7781069.0.i5" class=""></path></svg>