<svg width="22.000000" height="22.000000" viewBox="0 0 22 22" fill="none" xmlns="http://www.w3.org/2000/svg" xmlns:xlink="http://www.w3.org/1999/xlink">
	<defs>
		<linearGradient id="paint_linear_9_344_0" x1="0.000003" y1="10.999999" x2="24.037037" y2="10.999999" gradientUnits="userSpaceOnUse">
			<stop stop-color="#F7A0AD"/>
			<stop offset="1.000000" stop-color="#EB6284"/>
		</linearGradient>
	</defs>
	<circle id="恶意" cx="11.000000" cy="11.000000" r="11.000000" fill="url(#paint_linear_9_344_0)"/>
	<path id="path" d="M11.1113 15.1482C10.572 15.1478 10.0387 15.0844 9.51154 14.9574C8.98431 14.8306 8.47485 14.6433 7.98322 14.3956C7.49164 14.1478 7.02875 13.8452 6.59467 13.4877C6.16052 13.1301 5.76483 12.7256 5.40759 12.274C5.27631 12.1085 5.17554 11.9222 5.10535 11.7155C5.0351 11.5085 5 11.2946 5 11.0734C5 10.8521 5.0351 10.6381 5.10535 10.4312C5.17554 10.2244 5.27631 10.0381 5.40759 9.87256C5.58569 9.64746 5.77399 9.43347 5.97235 9.23059C6.17078 9.02771 6.37817 8.83716 6.59467 8.65894C6.81116 8.48059 7.0354 8.31567 7.26752 8.16394C7.49963 8.01221 7.73828 7.87463 7.98346 7.7511C8.22858 7.62769 8.47894 7.51904 8.73438 7.42517C8.98987 7.33142 9.24902 7.25293 9.5119 7.18982C9.77484 7.12671 10.04 7.07922 10.3074 7.04749C10.5748 7.01587 10.843 7 11.1118 7C11.3807 7 11.6489 7.01599 11.9163 7.04773C12.1837 7.07947 12.4489 7.12695 12.7117 7.19019C12.9746 7.2533 13.2338 7.33191 13.4892 7.42578C13.7447 7.51965 13.995 7.6283 14.2401 7.75183C14.4852 7.87537 14.7239 8.01294 14.9559 8.16479C15.188 8.31653 15.4123 8.48157 15.6287 8.65991C15.8452 8.83826 16.0526 9.02881 16.2509 9.23169C16.4493 9.43457 16.6375 9.64856 16.8156 9.87378C16.9465 10.0393 17.047 10.2255 17.117 10.432C17.1871 10.6387 17.2221 10.8524 17.2222 11.0734C17.2224 11.2943 17.1874 11.5081 17.1176 11.7148C17.0477 11.9215 16.9474 12.1077 16.8167 12.2734C16.4592 12.7249 16.0634 13.1294 15.6291 13.4869C15.1948 13.8445 14.7318 14.1472 14.2401 14.3949C13.7483 14.6427 13.2388 14.8301 12.7114 14.957C12.1841 15.084 11.6507 15.1477 11.1113 15.1482ZM11.1113 8.23669C10.6503 8.23682 10.1945 8.29102 9.7439 8.39929C9.29327 8.50769 8.85785 8.6676 8.43762 8.87939C8.01746 9.09106 7.62183 9.34973 7.25079 9.6554C6.87976 9.96106 6.54163 10.3069 6.23639 10.6929C6.19519 10.7456 6.16351 10.8047 6.14148 10.8702C6.11938 10.9358 6.10834 11.0035 6.10822 11.0735C6.10815 11.1436 6.11902 11.2113 6.14087 11.277C6.16272 11.3425 6.19421 11.4019 6.23529 11.4547C6.38751 11.6472 6.5484 11.8302 6.71796 12.0037C6.88751 12.1771 7.06482 12.3401 7.24982 12.4926C7.43488 12.645 7.62659 12.7863 7.82495 12.916C8.02338 13.0458 8.22736 13.1635 8.43695 13.269C8.64648 13.3746 8.86047 13.4675 9.07886 13.5479C9.29724 13.6281 9.5188 13.6953 9.74359 13.7493C9.96832 13.8033 10.195 13.8439 10.4236 13.8711C10.6522 13.8983 10.8815 13.9119 11.1113 13.9119C11.3412 13.912 11.5705 13.8984 11.7991 13.8712C12.0277 13.8441 12.2544 13.8036 12.4791 13.7496C12.7039 13.6957 12.9255 13.6285 13.1439 13.5483C13.3623 13.4681 13.5763 13.3752 13.7859 13.2697C13.9955 13.1642 14.1995 13.0465 14.3979 12.9167C14.5963 12.7871 14.7881 12.646 14.9731 12.4935C15.1582 12.3412 15.3355 12.1782 15.5051 12.0048C15.6747 11.8314 15.8356 11.6484 15.9879 11.4559C16.0287 11.4028 16.06 11.3434 16.0817 11.2777C16.1035 11.212 16.1143 11.1442 16.1141 11.0741C16.1141 11.0042 16.103 10.9363 16.0811 10.8707C16.0592 10.8051 16.0278 10.7458 15.9868 10.6929C15.6815 10.3069 15.3432 9.96118 14.9721 9.65552C14.601 9.34998 14.2054 9.09131 13.7851 8.87952C13.3649 8.66785 12.9294 8.50781 12.4788 8.39954C12.0281 8.29114 11.5723 8.23694 11.1113 8.23669Z" fill-rule="nonzero" fill="#FFFFFF"/>
	<path id="path" d="M11.1113 13.1112C10.9909 13.1112 10.8716 13.0981 10.7535 13.072C10.6355 13.0459 10.5208 13.0072 10.4096 12.9561C10.2984 12.9049 10.1927 12.8422 10.0926 12.7678C9.99249 12.6935 9.8999 12.609 9.81476 12.5144C9.72968 12.4199 9.65363 12.317 9.58679 12.2058C9.5199 12.0946 9.46338 11.9772 9.41736 11.8536C9.37128 11.7301 9.33649 11.6027 9.31299 11.4716C9.28949 11.3403 9.27777 11.2079 9.27777 11.0741C9.27777 10.9404 9.28949 10.808 9.31293 10.6769C9.33636 10.5457 9.37109 10.4183 9.41718 10.2948C9.4632 10.1713 9.51965 10.0538 9.58649 9.94263C9.65332 9.83142 9.72931 9.72864 9.81439 9.63403C9.89948 9.53943 9.99207 9.45496 10.0921 9.38062C10.1922 9.3064 10.2978 9.24353 10.409 9.19238C10.5202 9.14111 10.6348 9.10254 10.7529 9.07642C10.8709 9.05029 10.9901 9.03711 11.1105 9.03711C11.2308 9.03711 11.3501 9.05005 11.4681 9.07617C11.5862 9.10217 11.7009 9.14075 11.8121 9.19189C11.9233 9.24304 12.029 9.30566 12.1291 9.38C12.2292 9.45422 12.3218 9.5387 12.407 9.63318C12.4921 9.72766 12.5681 9.83057 12.6351 9.94177C12.702 10.0529 12.7585 10.1703 12.8046 10.2938C12.8507 10.4174 12.8855 10.5447 12.9091 10.6759C12.9326 10.807 12.9444 10.9395 12.9445 11.0732C12.9443 11.2069 12.9324 11.3394 12.9089 11.4705C12.8853 11.6017 12.8505 11.729 12.8043 11.8525C12.7582 11.976 12.7017 12.0934 12.6349 12.2046C12.568 12.3157 12.492 12.4186 12.4069 12.5132C12.3218 12.6078 12.2293 12.6923 12.1293 12.7666C12.0292 12.8409 11.9237 12.9038 11.8126 12.9551C11.7014 13.0063 11.5868 13.0452 11.4688 13.0714C11.3508 13.0977 11.2316 13.111 11.1113 13.1112ZM11.1113 10.3413C11.0238 10.3412 10.9396 10.3597 10.8588 10.3969C10.7779 10.4341 10.7065 10.4869 10.6446 10.5557C10.5827 10.6244 10.535 10.7036 10.5015 10.7935C10.468 10.8832 10.4512 10.9767 10.4512 11.074C10.4512 11.1711 10.4679 11.2646 10.5013 11.3545C10.5349 11.4443 10.5825 11.5236 10.6444 11.5924C10.7062 11.6611 10.7776 11.7141 10.8585 11.7512C10.9393 11.7885 11.0234 11.807 11.111 11.807C11.1984 11.807 11.2826 11.7883 11.3634 11.7511C11.4442 11.7139 11.5156 11.6609 11.5774 11.592C11.6392 11.5233 11.6869 11.444 11.7203 11.3541C11.7537 11.2643 11.7704 11.1708 11.7703 11.0736C11.7702 10.9766 11.7534 10.8832 11.72 10.7935C11.6865 10.7039 11.6389 10.6246 11.5771 10.556C11.5153 10.4873 11.4441 10.4344 11.3633 10.3972C11.2827 10.36 11.1987 10.3414 11.1113 10.3413Z" fill-rule="nonzero" fill="#FFFFFF"/>
</svg>
