<svg width="22.000000" height="22.000000" viewBox="0 0 22 22" fill="none" xmlns="http://www.w3.org/2000/svg" xmlns:xlink="http://www.w3.org/1999/xlink">
	<defs>
		<linearGradient id="paint_linear_9_349_0" x1="0.000003" y1="10.999999" x2="24.037037" y2="10.999999" gradientUnits="userSpaceOnUse">
			<stop stop-color="#6FF3A9"/>
			<stop offset="1.000000" stop-color="#53D5DD"/>
		</linearGradient>
	</defs>
	<circle id="椭圆 5" cx="11.000000" cy="11.000000" r="11.000000" fill="url(#paint_linear_9_349_0)"/>
	<path id="path" d="M11.0002 15.4816C10.4609 15.4812 9.92761 15.4177 9.40045 15.2908C8.87323 15.1639 8.36377 14.9767 7.87213 14.729C7.38055 14.4812 6.91766 14.1786 6.48358 13.821C6.04944 13.4635 5.65375 13.059 5.29651 12.6074C5.16522 12.4419 5.06445 12.2556 4.99426 12.0488C4.92401 11.8419 4.88892 11.6279 4.88892 11.4067C4.88892 11.1854 4.92401 10.9714 4.99426 10.7645C5.06445 10.5577 5.16522 10.3715 5.29651 10.2059C5.47461 9.98083 5.6629 9.76685 5.86127 9.56396C6.05969 9.36108 6.26709 9.17053 6.48358 8.99231C6.70007 8.81396 6.92432 8.64905 7.15643 8.49731C7.38855 8.34558 7.6272 8.20801 7.87238 8.08447C8.11749 7.96106 8.36786 7.85242 8.62329 7.75854C8.87878 7.66479 9.13794 7.5863 9.40082 7.52319C9.66376 7.46008 9.92889 7.4126 10.1963 7.38086C10.4637 7.34924 10.7319 7.33337 11.0007 7.33337C11.2697 7.33337 11.5378 7.34937 11.8052 7.3811C12.0726 7.41284 12.3378 7.46033 12.6006 7.52356C12.8635 7.58667 13.1227 7.66528 13.3781 7.75916C13.6336 7.85303 13.8839 7.96167 14.129 8.08521C14.3741 8.20874 14.6128 8.34631 14.8448 8.49817C15.077 8.6499 15.3012 8.81494 15.5176 8.99329C15.7341 9.17163 15.9415 9.36218 16.1398 9.56506C16.3382 9.76794 16.5264 9.98193 16.7045 10.2072C16.8354 10.3727 16.9359 10.5588 17.0059 10.7654C17.076 10.972 17.111 11.1858 17.1111 11.4067C17.1113 11.6277 17.0764 11.8414 17.0065 12.0482C16.9366 12.2549 16.8364 12.441 16.7056 12.6068C16.3481 13.0582 15.9523 13.4628 15.518 13.8203C15.0837 14.1779 14.6207 14.4806 14.129 14.7283C13.6372 14.9761 13.1277 15.1635 12.6003 15.2904C12.073 15.4174 11.5396 15.4811 11.0002 15.4816ZM11.0002 8.57007C10.5392 8.57019 10.0834 8.62439 9.63281 8.73267C9.18219 8.84106 8.74677 9.00098 8.32654 9.21277C7.90637 9.42444 7.51074 9.68311 7.13971 9.98877C6.76868 10.2944 6.43054 10.6403 6.12531 11.0262C6.08411 11.079 6.05243 11.1381 6.0304 11.2036C6.0083 11.2692 5.99725 11.3369 5.99713 11.4069C5.99707 11.4769 6.00793 11.5447 6.02979 11.6104C6.05164 11.6759 6.08313 11.7352 6.12421 11.7881C6.27643 11.9806 6.43732 12.1636 6.60687 12.337C6.77643 12.5105 6.95374 12.6735 7.13873 12.8259C7.32379 12.9784 7.5155 13.1196 7.71387 13.2494C7.91229 13.3792 8.11627 13.4968 8.32587 13.6024C8.5354 13.708 8.74939 13.8009 8.96777 13.8812C9.18616 13.9614 9.40771 14.0287 9.63251 14.0826C9.85724 14.1367 10.0839 14.1772 10.3125 14.2045C10.5411 14.2317 10.7704 14.2452 11.0002 14.2452C11.2302 14.2454 11.4594 14.2318 11.688 14.2046C11.9166 14.1775 12.1433 14.137 12.368 14.083C12.5928 14.0291 12.8144 13.9619 13.0328 13.8817C13.2512 13.8015 13.4652 13.7086 13.6748 13.603C13.8844 13.4976 14.0884 13.3799 14.2868 13.2501C14.4852 13.1205 14.677 12.9794 14.8621 12.8269C15.0471 12.6746 15.2244 12.5116 15.394 12.3381C15.5637 12.1648 15.7245 11.9818 15.8768 11.7893C15.9177 11.7362 15.9489 11.6768 15.9706 11.6111C15.9924 11.5454 16.0032 11.4775 16.0031 11.4075C16.003 11.3375 15.9919 11.2697 15.97 11.2041C15.9481 11.1384 15.9167 11.0792 15.8757 11.0262C15.5704 10.6403 15.2321 10.2946 14.861 9.98889C14.4899 9.68335 14.0943 9.42468 13.674 9.21289C13.2538 9.00122 12.8183 8.84119 12.3677 8.73291C11.917 8.62451 11.4612 8.57031 11.0002 8.57007Z" fill-rule="nonzero" fill="#FFFFFF"/>
	<path id="path" d="M11.0002 13.4446C10.8798 13.4446 10.7606 13.4315 10.6425 13.4054C10.5244 13.3793 10.4097 13.3406 10.2985 13.2894C10.1873 13.2383 10.0816 13.1755 9.98151 13.1012C9.88141 13.0269 9.78882 12.9424 9.70367 12.8478C9.61859 12.7533 9.54254 12.6504 9.47571 12.5392C9.40881 12.428 9.35229 12.3105 9.30627 12.187C9.26019 12.0635 9.2254 11.936 9.2019 11.8049C9.17841 11.6737 9.16669 11.5413 9.16669 11.4075C9.16669 11.2738 9.17841 11.1414 9.20184 11.0103C9.22528 10.879 9.26001 10.7517 9.30609 10.6282C9.35211 10.5046 9.40857 10.3872 9.4754 10.276C9.54224 10.1648 9.61823 10.062 9.70331 9.96741C9.78839 9.8728 9.88098 9.78833 9.98102 9.71399C10.0811 9.63977 10.1867 9.5769 10.2979 9.52576C10.4091 9.47449 10.5237 9.43591 10.6418 9.40979C10.7598 9.38367 10.879 9.37048 10.9994 9.37048C11.1198 9.37048 11.239 9.38342 11.3571 9.40955C11.4751 9.43555 11.5898 9.47412 11.701 9.52527C11.8122 9.57642 11.9179 9.63904 12.018 9.71338C12.1181 9.7876 12.2108 9.87207 12.2959 9.96655C12.381 10.061 12.457 10.1639 12.524 10.2751C12.5909 10.3862 12.6474 10.5037 12.6935 10.6272C12.7396 10.7507 12.7744 10.8781 12.798 11.0093C12.8215 11.1404 12.8333 11.2728 12.8334 11.4066C12.8332 11.5403 12.8214 11.6727 12.7978 11.8038C12.7742 11.9351 12.7394 12.0624 12.6932 12.1859C12.6472 12.3093 12.5906 12.4268 12.5238 12.538C12.4569 12.649 12.3809 12.752 12.2958 12.8466C12.2108 12.9412 12.1182 13.0256 12.0182 13.1C11.9182 13.1743 11.8126 13.2372 11.7015 13.2885C11.5903 13.3397 11.4757 13.3785 11.3577 13.4048C11.2397 13.431 11.1205 13.4443 11.0002 13.4446ZM11.0002 10.6747C10.9127 10.6746 10.8285 10.6931 10.7477 10.7302C10.6668 10.7675 10.5955 10.8203 10.5335 10.889C10.4716 10.9578 10.424 11.037 10.3904 11.1268C10.3569 11.2166 10.3401 11.3101 10.3401 11.4073C10.3401 11.5045 10.3568 11.598 10.3903 11.6879C10.4238 11.7777 10.4714 11.8569 10.5333 11.9258C10.5952 11.9945 10.6665 12.0475 10.7474 12.0846C10.8282 12.1218 10.9124 12.1404 10.9999 12.1404C11.0873 12.1404 11.1715 12.1217 11.2523 12.0845C11.3331 12.0472 11.4045 11.9943 11.4663 11.9254C11.5281 11.8567 11.5758 11.7773 11.6092 11.6875C11.6426 11.5977 11.6593 11.5042 11.6592 11.407C11.6591 11.3099 11.6423 11.2166 11.6089 11.1268C11.5754 11.0372 11.5278 10.958 11.466 10.8894C11.4042 10.8207 11.333 10.7678 11.2523 10.7306C11.1716 10.6934 11.0876 10.6748 11.0002 10.6747Z" fill-rule="nonzero" fill="#FFFFFF"/>
</svg>
