<?xml version="1.0" standalone="no"?><!DOCTYPE svg PUBLIC "-//W3C//DTD SVG 1.1//EN" "http://www.w3.org/Graphics/SVG/1.1/DTD/svg11.dtd"><svg t="1775707562098" class="icon" viewBox="0 0 1024 1024" version="1.1" xmlns="http://www.w3.org/2000/svg" p-id="6074" xmlns:xlink="http://www.w3.org/1999/xlink" width="200" height="200"><path d="M673.483924 215.84694C601.529824 145.743724 533.269813 77.483714 512.971522 0c-20.298291 77.483714-88.558301 145.759084-160.512401 215.8623C245.453414 322.868007 123.694389 444.627032 123.694389 627.273248c-5.537294 214.011415 166.042015 392.971222 380.05343 396.665312 214.011415 3.694089 392.971222-166.042015 396.665312-380.05343v-16.604202c1.835525-182.653897-119.9235-304.412921-226.929207-411.426308zM322.944807 662.317176c-11.066908 14.760997-22.133815 31.365198-29.521993 47.9694-1.850885 1.850885-3.694089 5.537294-7.372819 5.537294l-1.843204-0.01536c-9.223703 0-18.455086-16.604202-18.455087-16.604202-1.850885-3.694089-5.537294-9.216023-7.372818-12.910112l-1.850885-3.678729c-23.99238-51.671169-3.694089-123.609909-3.694089-123.609909 9.216023-35.043928 25.827905-70.110895 46.126195-99.62521 12.910112-18.455086 27.678789-36.894812 42.432106-55.349898l18.455087 18.455086 86.715096 88.558302c3.694089 3.694089 3.694089 9.216023 0 12.910112L356.15321 625.430044l-33.216083 36.879452z m193.720805 254.600316c-73.797304 0-134.676817-60.887192-132.841292-134.676816 0-33.216083 12.910112-64.565921 33.216083-88.558302 27.678789-33.216083 62.730397-66.416806 101.476093-110.692117 44.275311 47.9694 73.797304 79.326918 101.476094 116.237091 1.850885 1.850885 3.694089 5.537294 5.537294 9.223703 14.760997 22.133815 23.97702 47.9694 23.97702 75.648189 1.835525 73.789624-59.036308 132.833612-132.841292 132.833612z m252.757112-214.019095c-1.850885 5.544974-7.372818 9.223703-12.910113 11.066908l-1.850884 0.01536c-5.537294-1.850885-9.216023-5.537294-12.910113-9.223703-23.97702-35.043928-49.804925-68.260011-79.326918-97.782005l-35.043928-36.894812-118.080295-121.759024c-23.97702-22.133815-47.9694-47.9694-70.110895-71.9541 0-1.843205-1.843205-1.843205-1.843205-1.843205-3.694089-5.537294-7.372818-11.066908-9.223703-18.455086v-3.694089c-3.694089-20.298291 3.694089-40.588901 18.455086-55.349898 22.133815-22.133815 46.126195-46.126195 68.260011-70.103216 23.97702 25.827905 49.804925 51.655809 75.648189 77.483714 51.655809 47.9694 97.782004 101.476094 140.214111 158.669197 35.043928 49.804925 53.499014 107.005708 53.499013 167.892899-3.701769 22.133815-7.395858 47.96172-14.768676 71.93874z" fill="#0197D6" p-id="6075"></path></svg>