<?xml version="1.0" standalone="no"?><!DOCTYPE svg PUBLIC "-//W3C//DTD SVG 1.1//EN" "http://www.w3.org/Graphics/SVG/1.1/DTD/svg11.dtd"><svg t="1775715943925" class="icon" viewBox="0 0 1024 1024" version="1.1" xmlns="http://www.w3.org/2000/svg" p-id="7995" xmlns:xlink="http://www.w3.org/1999/xlink" width="200" height="200"><path d="M184.659334 516.829955l-19.838829-19.838829a227.37857 227.37857 0 0 1-56.956636-225.906657 137.271892 137.271892 0 1 1 166.070192-156.150777c73.915634-17.278979 154.870853 2.87983 212.787432 60.476428l7.999528 7.999527-101.114028 101.114028-7.999528-7.999527a83.995039 83.995039 0 0 0-119.03297 0 84.31502 84.31502 0 0 0-0.319981 119.032969l19.838829 19.838829 101.114028 101.114028 107.193668 106.873687-101.114028 101.114028-107.193668-106.873687-101.434009-100.794047z" fill="#7AC143" p-id="7996"></path><path d="M297.932643 403.556645l107.193669-107.193669 101.114028-101.114028 19.838828-19.838828c60.796409-60.796409 147.831269-79.995275 224.946715-57.276617A137.271892 137.271892 0 0 1 886.697869 0.060476a137.271892 137.271892 0 0 1 18.238923 273.263861c22.078696 76.795464 2.87983 163.190362-57.596598 223.666789l-7.999528 7.999528-101.114028-101.114028 7.679547-7.999527a83.899045 83.899045 0 1 0-118.712989-118.712989l-19.838828 19.838828-101.114028 101.114028-107.193669 106.873688-101.114028-101.434009z" fill="#F9A541" p-id="7997"></path><path d="M752.945769 912.006615c-77.435426 23.998583-165.430229 5.119698-226.866601-56.316674l-7.679546-7.679547 100.794047-100.794046 7.679546 7.679546a83.835048 83.835048 0 0 0 118.393008 0 83.515067 83.515067 0 0 0-0.319981-118.393007l-19.838829-19.838829-100.794047-100.794047-106.553706-106.553706 100.794047-100.794047 106.233725 106.553707 100.794047 100.794046 19.838828 19.838829a225.778665 225.778665 0 0 1 59.836466 213.747375 136.663928 136.663928 0 0 1-19.198866 271.983936c-65.596126 0-120.632875-47.037222-133.112138-109.433536z" fill="#F44321" p-id="7998"></path><path d="M714.228056 629.783283l-106.873688 106.873688-101.114028 101.114028-19.838828 19.838828a226.930597 226.930597 0 0 1-215.667262 59.836466A136.887915 136.887915 0 0 1 137.302131 1024 137.271892 137.271892 0 0 1 0.030238 886.728108a136.951911 136.951911 0 0 1 105.593764-133.43212c-19.198866-75.195559 0.639962-158.070664 59.516484-216.947186l7.679547-7.679547 101.114028 101.114028-7.679547 7.679547a83.995039 83.995039 0 0 0 0 119.032969 83.995039 83.995039 0 0 0 119.03297 0l19.838828-19.838828 101.114028-101.114028 106.873688-106.873688 101.114028 101.114028z" fill="#5091CD" p-id="7999"></path></svg>