<?xml version="1.0" standalone="no"?><!DOCTYPE svg PUBLIC "-//W3C//DTD SVG 1.1//EN" "http://www.w3.org/Graphics/SVG/1.1/DTD/svg11.dtd"><svg t="1775707415540" class="icon" viewBox="0 0 1024 1024" version="1.1" xmlns="http://www.w3.org/2000/svg" p-id="4781" xmlns:xlink="http://www.w3.org/1999/xlink" width="200" height="200"><path d="M1008.8 231.68a15.68 15.68 0 0 1 0.608 4.224v219.744c0 5.76-3.104 11.104-8.064 13.92l-184.448 106.24v210.528c0 5.76-3.072 11.008-8.032 13.92l-385.152 221.664a12.704 12.704 0 0 1-2.816 1.152c-0.352 0.096-0.672 0.352-1.024 0.416a14.848 14.848 0 0 1-8.192 0c-0.48-0.096-0.864-0.352-1.248-0.512-0.896-0.352-1.824-0.608-2.688-1.056L22.752 800.256a16.096 16.096 0 0 1-8.064-13.92V126.912c0-1.408 0.224-2.816 0.608-4.192 0.128-0.512 0.416-0.896 0.608-1.376a15.232 15.232 0 0 1 0.992-2.464c0.16-0.544 0.64-0.928 0.992-1.408 0.512-0.672 0.896-1.312 1.408-1.92 0.512-0.416 1.056-0.768 1.568-1.152 0.608-0.512 1.152-1.024 1.76-1.44h0.032L215.2 2.144a16.064 16.064 0 0 1 16 0l192.608 110.816c0.64 0.416 1.152 0.896 1.76 1.408l1.568 1.152c0.544 0.608 0.896 1.248 1.408 1.92 0.352 0.48 0.864 0.896 1.056 1.408 0.48 0.8 0.736 1.632 1.024 2.464 0.128 0.48 0.48 0.896 0.544 1.376a13.824 13.824 0 0 1 0.608 4.192v411.808l160.416-92.32V235.84c0-1.408 0.224-2.816 0.608-4.192 0.128-0.48 0.384-0.896 0.544-1.376a20.928 20.928 0 0 1 1.024-2.528c0.288-0.512 0.768-0.896 1.056-1.408 0.512-0.64 0.896-1.28 1.408-1.824a8.416 8.416 0 0 1 1.568-1.184c0.608-0.48 1.12-0.992 1.76-1.376h0.032l192.544-110.848a16.064 16.064 0 0 1 16 0l192.544 110.848c0.672 0.416 1.152 0.896 1.792 1.312 0.512 0.416 1.056 0.768 1.536 1.184 0.544 0.608 0.928 1.248 1.44 1.888 0.352 0.512 0.8 0.896 1.024 1.408a11.968 11.968 0 0 1 1.024 2.528c0.256 0.48 0.512 0.928 0.64 1.408z m-31.552 214.688V263.616l-160.416 92.32v182.752z m-192.48 330.688v-182.912l-352.992 201.504v184.576zM46.72 154.624v622.432l352.992 203.168v-184.576L215.136 691.2c-0.608-0.416-1.056-0.896-1.696-1.312-0.48-0.416-1.024-0.768-1.504-1.152l-0.032-0.096c-0.544-0.512-0.896-1.056-1.312-1.664-0.416-0.512-0.896-0.992-1.184-1.568h-0.096c-0.352-0.608-0.544-1.312-0.864-2.016-0.256-0.672-0.608-1.152-0.768-1.824a26.112 26.112 0 0 1-0.352-2.432c-0.096-0.608-0.256-1.152-0.256-1.76V247.008L114.048 193.376zM223.2 34.56L62.784 126.88 223.2 219.2l160.352-92.32z m83.456 576.224l93.088-53.6V154.624L239.232 247.008v402.56zM800.8 143.52L640.384 235.84l160.416 92.288 160.384-92.32z m-16.032 212.448l-160.48-92.32v182.752l160.48 92.32zM415.712 767.872l352.864-201.376-160.288-92.288-352.64 203.04z" fill="#FF382C" p-id="4782"></path></svg>