<?xml version="1.0" standalone="no"?><!DOCTYPE svg PUBLIC "-//W3C//DTD SVG 1.1//EN" "http://www.w3.org/Graphics/SVG/1.1/DTD/svg11.dtd"><svg t="1775715967558" class="icon" viewBox="0 0 1024 1024" version="1.1" xmlns="http://www.w3.org/2000/svg" p-id="8723" xmlns:xlink="http://www.w3.org/1999/xlink" width="200" height="200"><path d="M1017.32352 367.46752c-0.36352-42.61888-79.08864-61.96224-282.89536-61.96224C256.24576 305.50528 134.95808 285.09184 5.12 148.48c54.59968 82.01216 84.48512 235.88864 589.91104 228.20864 527.32928-8.12544 205.63456 135.96672 112.04096 298.78272 168.77568-150.67136 309.74464-249.97376 310.25152-307.40992v-0.59392zM345.40032 804.9408c-0.06656 39.90016-32.45056 72.19712-72.35072 72.14592-39.90016-0.0512-72.20224-32.4352-72.16128-72.33024 0.04096-39.90016 32.4096-72.21248 72.30976-72.18176 39.92576 0.03072 72.26368 32.44032 72.20224 72.36608z m329.28256 0c-0.06144 39.90016-32.45056 72.19712-72.35072 72.14592-39.89504-0.0512-72.20224-32.4352-72.16128-72.33024 0.04096-39.90016 32.41472-72.21248 72.31488-72.18176 39.92576 0.03072 72.25856 32.44032 72.19712 72.36608z" fill="#3BC3EC" p-id="8724"></path></svg>