<svg width="10.000000" height="12.000000" viewBox="0 0 10 12" fill="none" xmlns="http://www.w3.org/2000/svg" xmlns:xlink="http://www.w3.org/1999/xlink">
	<desc>
			Created with Pixso.
	</desc>
	<defs/>
	<path id="path" d="M8.88867 4.79999L9.44434 4.79999C9.59375 4.80228 9.73633 4.86685 9.84082 4.97885C9.94482 5.09143 10.002 5.24286 10 5.39999L10 11.4C10.002 11.5571 9.94482 11.7086 9.84033 11.8211C9.73096 11.9385 9.59863 11.9981 9.44385 12L0.556152 12C0.401367 11.9981 0.269043 11.9385 0.159668 11.8211C0.0512695 11.7046 -0.00195312 11.5642 0 11.4L0 5.39999C-0.00195312 5.24286 0.0551758 5.09143 0.159668 4.97885C0.263672 4.86685 0.40625 4.80173 0.556152 4.79999L1.11035 4.79999L1.11035 4.20001C1.08057 1.91315 2.82129 0.0331421 4.99951 0C7.17822 0.0331421 8.91895 1.91315 8.88867 4.20001L8.88867 4.79999ZM1.11035 6L1.11035 10.8L8.88916 10.8L8.88916 6L1.11035 6ZM7.77832 4.79999L7.77832 4.20001C7.7998 2.5657 6.55566 1.22287 4.99902 1.20001C3.44336 1.22342 2.19971 2.56628 2.22119 4.20001L2.22119 4.79999L7.77832 4.79999Z" fill-rule="nonzero" fill="#1D9534"/>
</svg>
