<svg width="12.299805" height="11.299995" viewBox="0 0 12.2998 11.3" fill="none" xmlns="http://www.w3.org/2000/svg" xmlns:xlink="http://www.w3.org/1999/xlink">
	<desc>
			Created with Pixso.
	</desc>
	<defs/>
	<path id="path" d="M4.27759 11.15L11.1328 11.15C11.3896 11.152 11.6353 11.055 11.824 10.8775C12.0291 10.6848 12.1479 10.4109 12.1499 10.1263L12.1499 5.1181C12.1477 4.83331 12.0286 4.55966 11.8237 4.3671C11.6348 4.18674 11.407 4.09615 11.1399 4.09529L4.27783 4.09529C4.01025 4.09618 3.78198 4.18712 3.59302 4.36813C3.38843 4.56082 3.26978 4.8347 3.26782 5.11937L3.26782 10.127C3.27002 10.4116 3.38867 10.6852 3.59351 10.8778C3.78223 11.0584 4.01025 11.1491 4.27759 11.15ZM11.1357 10.4689L4.27759 10.4689C4.20508 10.4676 4.1438 10.4421 4.09375 10.3923C4.02295 10.3259 3.98193 10.2278 3.98096 10.1232L3.98096 5.12216C3.98096 5.01915 4.02271 4.92043 4.09375 4.85361C4.14404 4.80374 4.20532 4.77815 4.27783 4.77681L11.1399 4.77681C11.2119 4.77814 11.2732 4.8035 11.3232 4.85292C11.394 4.91927 11.4353 5.01752 11.4363 5.12227L11.4363 10.122C11.4353 10.227 11.3943 10.3253 11.3232 10.3919C11.2729 10.4418 11.2083 10.4676 11.1357 10.4689ZM0.149902 4.38495L0.863037 4.38495L0.863037 2.77448C0.863037 1.70305 1.77539 0.831406 2.89722 0.831406C4.01904 0.831406 4.9314 1.70305 4.9314 2.77448L4.9314 4.38495L5.64453 4.38495L5.64453 2.77448C5.64453 1.32755 4.41211 0.149994 2.89722 0.149994C1.38232 0.149994 0.149902 1.32755 0.149902 2.77448L0.149902 4.38495Z" fill-rule="nonzero" fill="#999999"/>
	<path id="path" d="M11.1328 11.15C11.3896 11.152 11.6353 11.055 11.824 10.8775C12.0291 10.6848 12.1479 10.4109 12.1499 10.1263L12.1499 5.1181C12.1477 4.83331 12.0286 4.55966 11.8237 4.3671C11.6348 4.18674 11.407 4.09615 11.1399 4.09529L4.27783 4.09529C4.01025 4.09618 3.78198 4.18712 3.59302 4.36813C3.38843 4.56082 3.26978 4.8347 3.26782 5.11937L3.26782 10.127C3.27002 10.4116 3.38867 10.6852 3.59351 10.8778C3.78223 11.0584 4.01025 11.1491 4.27759 11.15L11.1328 11.15ZM4.27759 10.4689C4.20508 10.4676 4.1438 10.4421 4.09375 10.3923C4.02295 10.3259 3.98193 10.2278 3.98096 10.1232L3.98096 5.12216C3.98096 5.01915 4.02271 4.92043 4.09375 4.85361C4.14404 4.80374 4.20532 4.77815 4.27783 4.77681L11.1399 4.77681C11.2119 4.77814 11.2732 4.8035 11.3232 4.85292C11.394 4.91927 11.4353 5.01752 11.4363 5.12227L11.4363 10.122C11.4353 10.227 11.3943 10.3253 11.3232 10.3919C11.2729 10.4418 11.2083 10.4676 11.1357 10.4689L4.27759 10.4689ZM0.863037 4.38495L0.863037 2.77448C0.863037 1.70305 1.77539 0.831406 2.89722 0.831406C4.01904 0.831406 4.9314 1.70305 4.9314 2.77448L4.9314 4.38495L5.64453 4.38495L5.64453 2.77448C5.64453 1.32755 4.41211 0.149994 2.89722 0.149994C1.38232 0.149994 0.149902 1.32755 0.149902 2.77448L0.149902 4.38495L0.863037 4.38495Z" stroke="#999999" stroke-width="0.300000"/>
</svg>
