<svg width="12.299805" height="11.299988" viewBox="0 0 12.2998 11.3" fill="none" xmlns="http://www.w3.org/2000/svg" xmlns:xlink="http://www.w3.org/1999/xlink">
	<desc>
			Created with Pixso.
	</desc>
	<defs/>
	<path id="path" d="M4.27734 11.15L11.1328 11.15C11.3896 11.152 11.6353 11.055 11.8242 10.8775C12.0293 10.6848 12.1479 10.4109 12.1499 10.1263L12.1499 5.1181C12.1475 4.83331 12.0283 4.55966 11.8237 4.3671C11.6348 4.18674 11.4067 4.09613 11.1401 4.09531L4.27783 4.09531C4.01025 4.09619 3.78223 4.18713 3.59326 4.36813C3.38818 4.56082 3.27002 4.83469 3.26807 5.11938L3.26807 10.127C3.27002 10.4116 3.38867 10.6852 3.59326 10.8778C3.78223 11.0583 4.01025 11.1491 4.27734 11.15ZM11.1357 10.4689L4.27734 10.4689C4.20508 10.4676 4.14404 10.442 4.09375 10.3923C4.02295 10.3259 3.98193 10.2278 3.98096 10.1232L3.98096 5.12216C3.98096 5.01913 4.02246 4.92044 4.09375 4.85361C4.14404 4.80374 4.20557 4.77814 4.27783 4.77682L11.1401 4.77682C11.2119 4.77814 11.2729 4.8035 11.3232 4.85291C11.394 4.91928 11.4351 5.01752 11.4365 5.12228L11.4365 10.122C11.4355 10.227 11.394 10.3253 11.3232 10.3919C11.2729 10.4418 11.208 10.4676 11.1357 10.4689ZM0.149902 4.38495L0.862793 4.38495L0.862793 2.77448C0.862793 1.70306 1.77539 0.83139 2.89746 0.83139C4.01904 0.83139 4.93164 1.70306 4.93164 2.77448L4.93164 4.38495L5.64453 4.38495L5.64453 2.77448C5.64453 1.32755 4.41211 0.149994 2.89746 0.149994C1.38232 0.149994 0.149902 1.32755 0.149902 2.77448L0.149902 4.38495Z" fill-rule="nonzero" fill="#666666"/>
	<path id="path" d="M11.1328 11.15C11.3896 11.152 11.6353 11.055 11.8242 10.8775C12.0293 10.6848 12.1479 10.4109 12.1499 10.1263L12.1499 5.1181C12.1475 4.83331 12.0283 4.55966 11.8237 4.3671C11.6348 4.18674 11.4067 4.09613 11.1401 4.09531L4.27783 4.09531C4.01025 4.09619 3.78223 4.18713 3.59326 4.36813C3.38818 4.56082 3.27002 4.83469 3.26807 5.11938L3.26807 10.127C3.27002 10.4116 3.38867 10.6852 3.59326 10.8778C3.78223 11.0583 4.01025 11.1491 4.27734 11.15L11.1328 11.15ZM4.27734 10.4689C4.20508 10.4676 4.14404 10.442 4.09375 10.3923C4.02295 10.3259 3.98193 10.2278 3.98096 10.1232L3.98096 5.12216C3.98096 5.01913 4.02246 4.92044 4.09375 4.85361C4.14404 4.80374 4.20557 4.77814 4.27783 4.77682L11.1401 4.77682C11.2119 4.77814 11.2729 4.8035 11.3232 4.85291C11.394 4.91928 11.4351 5.01752 11.4365 5.12228L11.4365 10.122C11.4355 10.227 11.394 10.3253 11.3232 10.3919C11.2729 10.4418 11.208 10.4676 11.1357 10.4689L4.27734 10.4689ZM0.862793 4.38495L0.862793 2.77448C0.862793 1.70306 1.77539 0.83139 2.89746 0.83139C4.01904 0.83139 4.93164 1.70306 4.93164 2.77448L4.93164 4.38495L5.64453 4.38495L5.64453 2.77448C5.64453 1.32755 4.41211 0.149994 2.89746 0.149994C1.38232 0.149994 0.149902 1.32755 0.149902 2.77448L0.149902 4.38495L0.862793 4.38495Z" stroke="#666666" stroke-width="0.300000"/>
</svg>
