<svg width="18.000000" height="18.000000" viewBox="0 0 18 18" fill="none" xmlns="http://www.w3.org/2000/svg" xmlns:xlink="http://www.w3.org/1999/xlink">
	<desc>
			Created with Pixso.
	</desc>
	<defs/>
	<path id="【提示】" d="M9 15.8574C9.92657 15.8574 10.8246 15.6771 11.6691 15.3182C12.4849 14.9737 13.2187 14.4791 13.8489 13.8489C14.4791 13.2187 14.9737 12.4849 15.3182 11.669C15.6753 10.8246 15.8574 9.92657 15.8574 9C15.8574 8.07343 15.6771 7.17542 15.3182 6.33096C14.9737 5.51508 14.4791 4.78131 13.8489 4.15109C13.2187 3.52087 12.4849 3.02634 11.6691 2.68176C10.8246 2.32471 9.92657 2.14261 9 2.14261C8.07343 2.14261 7.17542 2.32291 6.33095 2.68176C5.51506 3.02634 4.7813 3.52087 4.15108 4.15109C3.52086 4.78131 3.02634 5.51508 2.68176 6.33096C2.32471 7.17542 2.14261 8.07343 2.14261 9C2.14261 9.92657 2.32292 10.8246 2.68176 11.669C3.02634 12.4849 3.52086 13.2187 4.15108 13.8489C4.7813 14.4791 5.51506 14.9737 6.33095 15.3182C7.17542 15.6753 8.07343 15.8574 9 15.8574ZM9 17C4.58134 17 1 13.4187 1 9C1 4.58133 4.58134 1 9 1C13.4187 1 17 4.58133 17 9C17 13.4187 13.4187 17 9 17ZM9.55524 13.008L9.55524 7.28787C9.55524 6.97366 9.29993 6.71835 8.98572 6.71835C8.67151 6.71835 8.4162 6.97366 8.4162 7.28787L8.4162 13.008C8.4162 13.3222 8.67151 13.5775 8.98572 13.5775C9.29993 13.5775 9.55524 13.3222 9.55524 13.008ZM8.98572 5.57578C9.29993 5.57578 9.55524 5.32047 9.55524 5.00626C9.55524 4.69202 9.29993 4.43674 8.98572 4.43674C8.67151 4.43674 8.4162 4.69202 8.4162 5.00626C8.4162 5.32047 8.67151 5.57578 8.98572 5.57578Z" fill-rule="nonzero" fill="#F0AD4E"/>
</svg>
