<?xml version="1.0" standalone="no"?><!DOCTYPE svg PUBLIC "-//W3C//DTD SVG 1.1//EN" "http://www.w3.org/Graphics/SVG/1.1/DTD/svg11.dtd"><svg t="1706581970812" class="icon" viewBox="0 0 1024 1024" version="1.1" xmlns="http://www.w3.org/2000/svg" p-id="21329" xmlns:xlink="http://www.w3.org/1999/xlink" width="200" height="200"><path d="M315.904 645.12c-16.896 0-30.72-13.824-30.72-30.72s13.824-30.72 30.72-30.72h376.832c16.896 0 30.72 13.824 30.72 30.72s-13.824 30.72-30.72 30.72H315.904z m-4.608 166.4c-16.896 0-30.72-13.824-30.72-30.72s13.824-30.72 30.72-30.72h376.832c16.896 0 30.72 13.824 30.72 30.72s-13.824 30.72-30.72 30.72H311.296zM143.872 1024c-53.248 0-83.456-33.792-83.456-84.48V115.712c0-48.64 25.088-90.624 85.504-90.624h530.432c12.8 0 24.064 7.168 30.208 18.432 5.632 11.776 4.608 24.576-3.072 35.328-6.144 8.192-16.384 13.312-26.624 13.312H128v864.256h771.072v-12.8V890.88 361.472c0-10.24 5.12-20.48 13.312-26.624 6.144-4.608 12.8-6.656 19.968-6.656 16.384 0 33.792 12.8 33.792 33.792v582.144c0 25.088-5.632 44.544-16.384 57.344-12.8 14.848-34.304 22.528-64 22.528H143.872zM824.32 53.76l7.68-9.728c6.656-8.192 15.36-18.944 20.992-25.088 9.216-10.24 22.016-15.872 36.864-15.872 9.216 0 17.408 2.048 22.528 4.096 16.896 5.632 39.424 25.6 49.664 43.52 11.264 19.456 11.264 39.936-0.512 55.808-9.216 12.8-16.896 22.016-19.456 25.6l-7.168 8.704-110.592-87.04z m-209.92 418.304c-6.144 0-11.264-2.048-14.848-5.632-4.608-5.12-6.656-12.288-6.656-23.04 0.512-18.944 10.24-77.824 14.336-90.112 3.072-9.216 6.144-17.92 14.336-28.672 11.264-15.36 150.016-199.68 177.664-236.544l7.168-9.216 111.104 87.04-6.656 9.216c-39.424 52.224-167.936 223.744-175.104 232.96-6.144 8.192-14.848 16.384-23.04 21.504-16.384 11.264-69.632 36.864-87.04 41.472-4.608 0.512-8.192 1.024-11.264 1.024z" p-id="21330" fill="#9c9c9c"></path></svg>