<svg width="14.000000" height="14.000000" viewBox="0 0 14 14" fill="none" xmlns="http://www.w3.org/2000/svg" xmlns:xlink="http://www.w3.org/1999/xlink">
	<desc>
			Created with Pixso.
	</desc>
	<defs/>
	<path id="path" d="M6.3855 1C6.70654 1 6.86694 1.16458 6.86694 1.49371C6.86694 1.76361 6.65601 1.98334 6.39355 1.9874L1.96313 1.9874L1.96313 12.0133L11.7419 12.0133L11.7419 7.51575C11.7458 7.24652 11.9602 7.03018 12.2234 7.03018C12.4868 7.03018 12.7009 7.24652 12.7051 7.51575L12.7051 12.0275C12.7051 12.5646 12.2803 13 11.7566 13L1.94849 13C1.42456 13.0007 1 12.5653 1 12.0282L1 1.97247C1 1.43539 1.42456 1 1.94849 1L6.3855 1ZM9.94751 1.63409C10.646 0.917938 11.7776 0.917938 12.4761 1.63409C13.1746 2.35022 13.1746 3.51053 12.4761 4.22668L7.49414 9.33456C7.44263 9.38745 7.38037 9.42679 7.31152 9.45053L4.50903 10.4081C4.1438 10.5329 3.79663 10.1768 3.91821 9.80249L4.85229 6.92914C4.87549 6.85861 4.91382 6.79486 4.96533 6.74194L9.94751 1.63409ZM11.8159 2.31088C11.4827 1.96909 10.9417 1.96909 10.6082 2.31088L5.70435 7.33875L5.10034 9.1962L6.91211 8.57706L11.8159 3.54919C12.146 3.21078 12.1394 2.65402 11.8159 2.31088Z" fill="#20A53A" fill-opacity="1.000000" fill-rule="evenodd"/>
</svg>
