<svg width="10.000000" height="12.000000" viewBox="0 0 10 12" fill="none" xmlns="http://www.w3.org/2000/svg" xmlns:xlink="http://www.w3.org/1999/xlink">
	<desc>
			Created with Pixso.
	</desc>
	<defs/>
	<path id="path" d="M8.88867 4.8L9.44434 4.8C9.59375 4.80229 9.73633 4.86685 9.84082 4.97885C9.94482 5.09143 10.0022 5.24286 10 5.39999L10 11.4C10.0022 11.5571 9.94482 11.7086 9.84033 11.8211C9.73096 11.9385 9.59888 11.9981 9.44385 12L0.556152 12C0.401123 11.9981 0.269043 11.9385 0.159668 11.8211C0.0512695 11.7046 -0.00195312 11.5642 0 11.4L0 5.39999C-0.00219727 5.24286 0.0551758 5.09143 0.159668 4.97885C0.263672 4.86685 0.40625 4.80171 0.556152 4.8L1.11011 4.8L1.11011 4.2C1.08057 1.91315 2.82129 0.0331421 4.99976 0C7.17822 0.0331421 8.9187 1.91315 8.88867 4.2L8.88867 4.8ZM1.11011 6L1.11011 10.8L8.8894 10.8L8.8894 6L1.11011 6ZM7.77808 4.8L7.77808 4.2C7.79956 2.56572 6.55566 1.22285 4.99927 1.2C3.44336 1.22343 2.19995 2.56628 2.22119 4.2L2.22119 4.8L7.77808 4.8Z" fill-rule="nonzero" fill="#20A53A"/>
</svg>
