<svg viewBox="0 0 101.2 101.2" xmlns="http://www.w3.org/2000/svg" xmlns:xlink="http://www.w3.org/1999/xlink" width="101.200012" height="101.199951" fill="none" customFrame="#000000">
	<path id="矢量 6" d="M50.6 0.599976C62.1042 0.599976 71.4333 10.225 71.4333 22.0958C71.4333 23.9301 71.2091 25.7311 70.7761 27.4658C70.2889 29.4175 70.9661 31.5435 72.5949 32.7239C74.979 34.4516 77.1552 36.4556 79.0768 38.6965C79.1296 38.758 79.0892 38.8531 79.0083 38.8583C83.9375 38.8583 88.1 34.6916 88.1 29.3875C88.1 27.3416 89.62 25.6 91.6659 25.6L92.6417 25.6C94.7357 25.6 96.4333 27.2976 96.4333 29.3916C96.4333 35.4035 93.2323 40.7463 88.3562 43.7833C86.2 45.1262 84.9812 47.8855 85.8501 50.2725C86.827 52.9565 87.5055 55.7844 87.8451 58.7138C87.86 58.8422 87.9708 58.9463 88.1 58.9416L88.1 58.9333L96.6027 58.9416C98.8108 58.9431 100.6 60.7309 100.6 62.939L100.6 63.2723C100.6 65.4825 98.8075 67.2764 96.5973 67.275L88.1 67.2666C87.9715 67.2596 87.8599 67.3543 87.8451 67.4822C87.5101 70.3714 86.8385 73.206 85.8476 75.9292C84.9792 78.3155 86.1983 81.0731 88.354 82.4153C93.2313 85.452 96.4333 90.7955 96.4333 96.8083C96.4333 98.9024 94.7357 100.6 92.6417 100.6L91.921 100.6C89.8221 100.6 88.1161 98.9071 88.1 96.8083C88.1 92.2739 85.0565 88.5748 81.0943 87.597C79.9211 87.3076 78.7601 87.8909 77.9338 88.7725C74.6543 92.2714 70.7283 95.1117 66.3663 97.1329C61.4258 99.4221 56.0451 100.605 50.6 100.6C45.1553 100.606 39.7749 99.4229 34.8344 97.1344C29.9533 94.8733 25.6177 91.5867 22.1228 87.4993C22.0709 87.4386 22.1119 87.3534 22.1917 87.35L22.1917 87.3416C17.2625 87.3416 13.1 91.5083 13.1 96.8125C13.1 98.9042 11.4043 100.6 9.31251 100.6L8.55834 100.6C6.46426 100.6 4.76667 98.9024 4.76667 96.8083C4.76667 90.7959 7.96824 85.4528 12.845 82.4159C15.0009 81.0734 16.2199 78.315 15.3514 75.9284C14.3605 73.2055 13.6892 70.3712 13.3549 67.4822C13.3401 67.3543 13.2285 67.2596 13.1 67.2666L4.60001 67.2666C2.39087 67.2666 0.600006 65.4758 0.600006 63.2666L0.600006 62.9333C0.600006 60.7242 2.39087 58.9333 4.60001 58.9333L13.1 58.9333C13.1046 58.9333 13.1 58.9287 13.1 58.9333L13.1 58.9416C13.2292 58.9463 13.34 58.8422 13.3549 58.7138C13.6902 55.826 14.3617 52.9928 15.3522 50.2709C16.2207 47.8845 15.0016 45.1268 12.8458 43.7845C7.96861 40.7478 4.76667 35.4044 4.76667 29.3916C4.76667 27.2976 6.46426 25.6 8.55834 25.6L9.30834 25.6C11.4024 25.6 13.1 27.2976 13.1 29.3916C13.1 33.9269 16.1447 37.6266 20.1081 38.6035C21.28 38.8923 22.4398 38.3103 23.2658 37.4303C24.8948 35.6945 26.684 34.1181 28.609 32.7218C30.2378 31.5403 30.9137 29.4132 30.4243 27.4614C29.9859 25.7126 29.7639 23.9119 29.7667 22.1C29.7667 10.2208 39.0958 0.599976 50.6 0.599976ZM41.9325 35.2442C38.1038 36.4364 34.5456 38.4104 31.4912 41.0593C27.2681 44.7219 24.1862 49.5206 22.6121 54.8845C21.0379 60.2484 21.0379 65.9516 22.612 71.3154C24.1862 76.6793 27.2681 81.478 31.4912 85.1406C34.5456 87.7895 38.1038 89.7635 41.9325 90.9557C44.2591 91.6802 46.4333 89.7921 46.4333 87.3553L46.4333 38.8446C46.4333 36.4078 44.2591 34.5197 41.9325 35.2442ZM54.7708 34.2291L54.7708 87.3465C54.7708 89.7849 56.9478 91.6734 59.2751 90.9457C63.0972 89.7507 66.6488 87.7763 69.6974 85.1292C73.9153 81.4667 76.9931 76.6702 78.565 71.3099C80.137 65.9495 80.137 60.2505 78.565 54.8901C76.9931 49.5297 73.9153 44.7333 69.6974 41.0708C65.4794 37.4083 60.2987 35.0337 54.7708 34.2291L54.7708 34.2291ZM50.6 9.19581C43.6958 9.19581 38.1 14.9708 38.1 22.0958C38.1 22.7076 38.141 23.3125 38.2218 23.9076C38.4979 25.9406 40.6743 26.8757 42.6796 26.4422C45.2788 25.8803 47.9339 25.5972 50.6 25.6C53.3214 25.6 55.9746 25.8904 58.5303 26.4405C60.5313 26.8712 62.7015 25.9392 62.9777 23.911C63.0588 23.315 63.1 22.7089 63.1 22.0958C63.1 14.9708 57.5042 9.19581 50.6 9.19581L50.6 9.19581Z" fill="rgb(245,245,245)" fill-rule="nonzero" />
	<path id="矢量 6" d="M71.4333 22.0958C71.4333 23.9301 71.2091 25.7311 70.7761 27.4658C70.2889 29.4175 70.9661 31.5435 72.5949 32.7239C74.979 34.4516 77.1552 36.4556 79.0768 38.6965C79.1296 38.758 79.0892 38.8531 79.0083 38.8583C83.9375 38.8583 88.1 34.6916 88.1 29.3875C88.1 27.3416 89.62 25.6 91.6659 25.6L92.6417 25.6C94.7357 25.6 96.4333 27.2976 96.4333 29.3916C96.4333 35.4035 93.2323 40.7463 88.3562 43.7833C86.2 45.1262 84.9812 47.8855 85.8501 50.2725C86.827 52.9565 87.5055 55.7844 87.8451 58.7138C87.86 58.8422 87.9708 58.9463 88.1 58.9416L88.1 58.9333L96.6027 58.9416C98.8108 58.9431 100.6 60.7309 100.6 62.939L100.6 63.2723C100.6 65.4825 98.8075 67.2764 96.5973 67.275L88.1 67.2666C87.9715 67.2596 87.8599 67.3543 87.8451 67.4822C87.5101 70.3714 86.8385 73.206 85.8476 75.9292C84.9792 78.3155 86.1983 81.0731 88.354 82.4153C93.2313 85.452 96.4333 90.7955 96.4333 96.8083C96.4333 98.9024 94.7357 100.6 92.6417 100.6L91.921 100.6C89.8221 100.6 88.1161 98.9071 88.1 96.8083C88.1 92.2739 85.0565 88.5748 81.0943 87.597C79.9211 87.3076 78.7601 87.8909 77.9338 88.7725C74.6543 92.2714 70.7283 95.1117 66.3663 97.1329C61.4258 99.4221 56.0451 100.605 50.6 100.6C45.1553 100.606 39.7749 99.4229 34.8344 97.1344C29.9533 94.8733 25.6177 91.5867 22.1228 87.4993C22.0709 87.4386 22.1119 87.3534 22.1917 87.35L22.1917 87.3416C17.2625 87.3416 13.1 91.5083 13.1 96.8125C13.1 98.9042 11.4043 100.6 9.31251 100.6L8.55834 100.6C6.46426 100.6 4.76667 98.9024 4.76667 96.8083C4.76667 90.7959 7.96824 85.4528 12.845 82.4159C15.0009 81.0734 16.2199 78.315 15.3514 75.9284C14.3605 73.2055 13.6892 70.3712 13.3549 67.4822C13.3401 67.3543 13.2285 67.2596 13.1 67.2666L4.60001 67.2666C2.39087 67.2666 0.600006 65.4758 0.600006 63.2666L0.600006 62.9333C0.600006 60.7242 2.39087 58.9333 4.60001 58.9333L13.1 58.9333C13.1046 58.9333 13.1 58.9287 13.1 58.9333L13.1 58.9416C13.2292 58.9463 13.34 58.8422 13.3549 58.7138C13.6902 55.826 14.3617 52.9928 15.3522 50.2709C16.2207 47.8845 15.0016 45.1268 12.8458 43.7845C7.96861 40.7478 4.76667 35.4044 4.76667 29.3916C4.76667 27.2976 6.46426 25.6 8.55834 25.6L9.30834 25.6C11.4024 25.6 13.1 27.2976 13.1 29.3916C13.1 33.9269 16.1447 37.6266 20.1081 38.6035C21.28 38.8923 22.4398 38.3103 23.2658 37.4303C24.8948 35.6945 26.684 34.1181 28.609 32.7218C30.2378 31.5403 30.9137 29.4132 30.4243 27.4614C29.9859 25.7126 29.7639 23.9119 29.7667 22.1C29.7667 10.2208 39.0958 0.599976 50.6 0.599976C62.1042 0.599976 71.4333 10.225 71.4333 22.0958ZM31.4912 41.0593C27.2681 44.7219 24.1862 49.5206 22.6121 54.8845C21.0379 60.2484 21.0379 65.9516 22.612 71.3154C24.1862 76.6793 27.2681 81.478 31.4912 85.1406C34.5456 87.7895 38.1038 89.7635 41.9325 90.9557C44.2591 91.6802 46.4333 89.7921 46.4333 87.3553L46.4333 38.8446C46.4333 36.4078 44.2591 34.5197 41.9325 35.2442C38.1038 36.4364 34.5456 38.4104 31.4912 41.0593ZM54.7708 87.3465C54.7708 89.7849 56.9478 91.6734 59.2751 90.9457C63.0972 89.7507 66.6488 87.7763 69.6974 85.1292C73.9153 81.4667 76.9931 76.6702 78.565 71.3099C80.137 65.9495 80.137 60.2505 78.565 54.8901C76.9931 49.5297 73.9153 44.7333 69.6974 41.0708C65.4794 37.4083 60.2987 35.0337 54.7708 34.2291L54.7708 34.2291L54.7708 87.3465ZM38.1 22.0958C38.1 22.7076 38.141 23.3125 38.2218 23.9076C38.4979 25.9406 40.6743 26.8757 42.6796 26.4422C45.2788 25.8803 47.9339 25.5972 50.6 25.6C53.3214 25.6 55.9746 25.8904 58.5303 26.4405C60.5313 26.8712 62.7015 25.9392 62.9777 23.911C63.0588 23.315 63.1 22.7089 63.1 22.0958C63.1 14.9708 57.5042 9.19581 50.6 9.19581L50.6 9.19581C43.6958 9.19581 38.1 14.9708 38.1 22.0958Z" fill-rule="nonzero" stroke="rgb(245,245,245)" stroke-width="1.20000005" />
</svg>
