<?xml version="1.0" encoding="utf-8"?>
<!-- Generator: Adobe Illustrator 23.0.6, SVG Export Plug-In . SVG Version: 6.00 Build 0)  -->
<svg version="1.1" id="图层_1" xmlns="http://www.w3.org/2000/svg" xmlns:xlink="http://www.w3.org/1999/xlink" x="0px" y="0px"
	 viewBox="0 0 282.2 34.5" style="enable-background:new 0 0 282.2 34.5;" xml:space="preserve">
<style type="text/css">
	.st0{clip-path:url(#SVGID_2_);fill:#898989;}
	.st1{fill:#898989;}
	.st2{font-family:'MicrosoftYaHei-Bold';}
	.st3{font-size:30px;}
</style>
<g>
	<g>
		<g>
			<defs>
				<rect id="SVGID_1_" y="2" width="37.2" height="31.7"/>
			</defs>
			<clipPath id="SVGID_2_">
				<use xlink:href="#SVGID_1_"  style="overflow:visible;"/>
			</clipPath>
			<path class="st0" d="M7.8,2H17l-6.3,8.3L7.8,2z M0,11.1l6.4-8.3l2.9,8.3H0z M0.1,12.7h9.8l6.6,19.7L0.1,12.7z M12,11.1l6.6-8.6
				l6.6,8.6L12,11.1L12,11.1z M11.5,12.7h14.1l-7.1,20.9L11.5,12.7z M20.2,2h9.2l-2.9,8.3L20.2,2z M27.8,11.1l2.9-8.3l6.4,8.3H27.8z
				 M27.3,12.7h9.8L20.6,32.4L27.3,12.7z"/>
		</g>
	</g>
</g>
<text transform="matrix(1 0 0 1 43.19 28.6599)" class="st1 st2 st3">Pro Advantages</text>
</svg>
